# xmcd
#
# Track frame offsets:
#	150
#	16325
#	30220
#	52211
#	74052
#	90269
#	107286
#	121224
#	133956
#	151821
#	169525
#	188821
#	202362
#	215221
#	228705
#	243740
#	256453
#	272495
#	288545
#
# Disc length: 4103 seconds
#
# Revision: 1
# Processed by: cddbd v1.5.2PL0 Copyright (c) Steve Scherf et al.
# Submitted via: audiograbber 1.83.01
#
DISCID=1d100513
DTITLE=Various Artist - Hott Country 164
DYEAR=2009
DGENRE=Country
TTITLE0=Terri Clark - If You Want Fire ( Radio Edit )
TTITLE1=George Canyon - Betty's Buns
TTITLE2=Taylor Swift - Fifteen
TTITLE3=Rascal Flatts - Why
TTITLE4=Gord Bamford - Hurtin' Me Back
TTITLE5=Tim McGraw - Southern Voice ( Radio Edit )
TTITLE6=Michelle Branch - Sooner Or Later
TTITLE7=Jypsi - Mister Officer
TTITLE8=Honey And Money - Never Lonely
TTITLE9=Jason Aldean - The Truth
TTITLE10=Corb Lund - A Game In A Town Like This
TTITLE11=Shane Yellowbird - Bare Feet On The Blacktop
TTITLE12=Steve Alzar - Moo La Moo
TTITLE13=Steel Magnola - Kepp On Lovin' You
TTITLE14=Sierra Noble - Try Anything
TTITLE15=Holly Williams - Mama
TTITLE16=Lee Brice - Love Like Crazy
TTITLE17=Angela Harris - Good Things Will Come
TTITLE18=Brooks and Dunn - Neon Moon ( 1992 )
EXTD=October 2009
EXTT0=
EXTT1=
EXTT2=
EXTT3=
EXTT4=
EXTT5=
EXTT6=
EXTT7=
EXTT8=
EXTT9=
EXTT10=
EXTT11=
EXTT12=
EXTT13=
EXTT14=
EXTT15=
EXTT16=
EXTT17=
EXTT18=
PLAYORDER=
